# xmcd CD database file
#
# Track frame offsets:
#	183
#	24630
#	50883
#	79688
#	110218
#	137883
#	166835
#	202150
#	225928
#	242963
#	278435
#
# Disc length: 4122 seconds
#
# Revision: 0
# Processed by: cddbd v1.5.2PL0 Copyright (c) Steve Scherf et al.
# Submitted via: CDex 1.70beta2
#
DISCID=9910180b
DTITLE=John Marshall  - Bopera Houise
DYEAR=1989
DGENRE=Jazz
TTITLE0=Kiss and Tell
TTITLE1=Samba Claudine
TTITLE2=Gone Job
TTITLE3=Smoke Gets In Your Eyes
TTITLE4=Waiiing Wail
TTITLE5=Is That So
TTITLE6=Just One Of Those Things
TTITLE7=Sippin At Bells
TTITLE8=So Young
TTITLE9=Beans and The Boys
TTITLE10=11th and First
EXTD=YEAR: 1989
EXTT0=
EXTT1=
EXTT2=
EXTT3=
EXTT4=
EXTT5=
EXTT6=
EXTT7=
EXTT8=
EXTT9=
EXTT10=
PLAYORDER=
